# xmcd
#
# Track frame offsets:
#	187
#	10575
#	23607
#	37697
#	49057
#	61537
#	74705
#	88147
#	101252
#	115010
#	127317
#	145322
#	161282
#	184740
#	199355
#	213757
#	234900
#	250492
#	266125
#
# Disc length: 3780 seconds
#
# Revision: 2
# Processed by: cddbd v1.5.2PL0 Copyright (c) Steve Scherf et al.
# Submitted via: audiograbber 1.83.01
#
DISCID=010ec213
DTITLE=Muddy Waters - Muddy Waters Sings Big Bill Broonzy/Folk Singer
DYEAR=1960
DGENRE=Blues
TTITLE0=Tell Me Baby
TTITLE1=Southbound Train
TTITLE2=When I Get To Thinking
TTITLE3=Just A Dream (On My Mind)
TTITLE4=Double Trouble
TTITLE5=I Feel So Good
TTITLE6=I Done Got Wise
TTITLE7=Mopper's Blues
TTITLE8=Lonesome Road Blues
TTITLE9=Hey, Hey
TTITLE10=My Home Is In The Delta
TTITLE11=Long Distance
TTITLE12=My Captain
TTITLE13=Good Morning School Girl
TTITLE14=You Gonna Need My Help
TTITLE15=Cold Weather Blues
TTITLE16=Big Leg Woman
TTITLE17=Country Boy
TTITLE18=Feel Like Going Home
EXTD=
EXTT0=
EXTT1=
EXTT2=
EXTT3=
EXTT4=
EXTT5=
EXTT6=
EXTT7=
EXTT8=
EXTT9=
EXTT10=
EXTT11=
EXTT12=
EXTT13=
EXTT14=
EXTT15=
EXTT16=
EXTT17=
EXTT18=
PLAYORDER=
